<svg id="Layer_1" data-name="Layer 1" xmlns="http://www.w3.org/2000/svg" viewBox="0 0 300 110">
    <defs>
        <style>.cls-1{fill:#c8202f;}.cls-2{fill:#fff;}</style>
    </defs>
    <title>MapR_technologies_logo_website</title>
    <rect class="cls-1" x="-0.68" y="-0.38" width="301.16" height="110.41"/>
    <path class="cls-2"
          d="M267,63.39a3.12,3.12,0,1,1-3.11-3A3,3,0,0,1,267,63.39Zm-5.45,0a2.35,2.35,0,0,0,2.37,2.42,2.32,2.32,0,0,0,2.31-2.4,2.34,2.34,0,1,0-4.68,0ZM263.41,65h-.7v-3a6.13,6.13,0,0,1,1.16-.09,1.89,1.89,0,0,1,1.05.22.84.84,0,0,1,.3.67.78.78,0,0,1-.63.7v0a.9.9,0,0,1,.56.74,2.35,2.35,0,0,0,.22.76h-.76a2.6,2.6,0,0,1-.24-.74c-.06-.33-.24-.48-.63-.48h-.33Zm0-1.72h.33c.39,0,.7-.13.7-.44s-.2-.46-.65-.46a1.68,1.68,0,0,0-.39,0Z"/>
    <path class="cls-2"
          d="M73.77,60.86,62.52,23.91c-1.39-4.38-4-6.07-7.27-6.07s-6.37,1.79-7.47,6.07L37,67.83h7.87L55,25.8h.3L66.7,62.75c1.19,3.88,4.28,5.67,7.17,5.57,2.89.1,5.78-1.69,7.07-5.57L92.39,25.8h.3L102,61.75c1.09,4.58,4.18,6.57,8.37,6.57a8.63,8.63,0,0,0,8.36-5.57L134.12,24l10.16,18.52H133.12V49.7h15.24l7,12.55c2.19,4.08,4.58,6.07,9.76,6.07,4,0,8.07-1.89,8.07-10.26V25.5h15.93c8.76,0,10.56,4.68,10.56,8.27S197.85,42,189.09,42h-7.67v7.17h7.18c13.83,0,19-6.18,19-15.43s-5.27-15.44-18.82-15.44H173.15c-6.17,0-7.67,2-7.67,7.17V64.34h-.3l-22.6-40.43c-2.19-4.08-4.28-6-8.07-6.07-3.49-.1-6.77,2.09-8.27,6.07L110.52,64.34h-.2L100,23.91c-1.1-4.28-4-6.07-7.27-6.07s-6,1.69-7.47,6.07L74.07,60.86ZM238.89,25.5c8.76,0,10.55,4.68,10.55,8.27S247.65,42,238.89,42H215.28V67.83H223V49.21h13.85l13.35,18.62h9.26L245.65,48.11c7.57-1.59,11.75-7.17,11.75-14.34,0-9.26-5.27-15.44-18.92-15.44H216.87a3.59,3.59,0,1,0,0,7.17Z"/>
    <path class="cls-2"
          d="M37.22,75.65h5.53c4.45,0,7.53,3.06,7.53,7v0c0,4-3.08,7.09-7.53,7.09H37.22ZM42.75,87A4,4,0,0,0,47,82.77v0a4.07,4.07,0,0,0-4.27-4.27H40.34V87Z"/>
    <path class="cls-2" d="M56.08,75.55H59L65,89.82H61.77l-1.3-3.18h-6l-1.3,3.18H50Zm3.28,8.34-1.88-4.6-1.88,4.6Z"/>
    <path class="cls-2" d="M68.29,78.52H64V75.65H75.72v2.87H71.41v11.3H68.29Z"/>
    <path class="cls-2"
          d="M80.74,75.55h2.87l6.07,14.27H86.43l-1.3-3.18h-6l-1.3,3.18H74.67ZM84,83.89l-1.88-4.6-1.88,4.6Z"/>
    <path class="cls-2" d="M101.24,78.52H96.93V75.65h11.74v2.87h-4.31v11.3h-3.12Z"/>
    <path class="cls-2" d="M111.06,75.65h10.69v2.77h-7.59V81.3h6.68v2.77h-6.68v3h7.69v2.77H111.06Z"/>
    <path class="cls-2"
          d="M123.59,82.77v0A7.2,7.2,0,0,1,131,75.41a7.31,7.31,0,0,1,5.59,2.19l-2,2.29a5.23,5.23,0,0,0-3.62-1.6,4.2,4.2,0,0,0-4.11,4.41v0A4.21,4.21,0,0,0,131,87.19a5.11,5.11,0,0,0,3.73-1.66l2,2a7.24,7.24,0,0,1-5.81,2.53A7.15,7.15,0,0,1,123.59,82.77Z"/>
    <path class="cls-2" d="M139.16,75.65h3.12v5.61H148V75.65h3.12V89.82H148V84.13h-5.75v5.69h-3.12Z"/>
    <path class="cls-2" d="M154.54,75.65h2.87l6.64,8.73V75.65h3.08V89.82h-2.65l-6.86-9v9h-3.08Z"/>
    <path class="cls-2"
          d="M169.5,82.77v0a7.53,7.53,0,0,1,15.06,0v0a7.53,7.53,0,0,1-15.06,0Zm11.8,0v0A4.31,4.31,0,0,0,177,78.28a4.24,4.24,0,0,0-4.25,4.41v0a4.31,4.31,0,0,0,4.29,4.45A4.24,4.24,0,0,0,181.3,82.77Z"/>
    <path class="cls-2" d="M186.93,75.65H190V87h7.07v2.83H186.93Z"/>
    <path class="cls-2"
          d="M198,82.77v0a7.53,7.53,0,0,1,15.06,0v0a7.53,7.53,0,0,1-15.06,0Zm11.8,0v0a4.31,4.31,0,0,0-4.29-4.45,4.24,4.24,0,0,0-4.25,4.41v0a4.31,4.31,0,0,0,4.29,4.45A4.24,4.24,0,0,0,209.82,82.77Z"/>
    <path class="cls-2"
          d="M215.23,82.77v0a7.27,7.27,0,0,1,7.43-7.33,7.78,7.78,0,0,1,5.57,1.94l-2,2.37a5.22,5.22,0,0,0-3.7-1.44,4.26,4.26,0,0,0-4.07,4.41v0a4.25,4.25,0,0,0,4.29,4.49,5,5,0,0,0,2.94-.85v-2h-3.14V81.66h6.15v6.15a9.2,9.2,0,0,1-6.05,2.25A7.09,7.09,0,0,1,215.23,82.77Z"/>
    <path class="cls-2" d="M231.87,75.65H235V89.82h-3.12Z"/>
    <path class="cls-2" d="M238.53,75.65h10.69v2.77h-7.59V81.3h6.68v2.77h-6.68v3h7.69v2.77H238.53Z"/>
    <path class="cls-2"
          d="M251.12,87.75,253,85.55a6.5,6.5,0,0,0,4.23,1.72c1.28,0,2-.51,2-1.34v0c0-.79-.49-1.19-2.85-1.8-2.85-.73-4.7-1.52-4.7-4.33v0c0-2.57,2.06-4.27,5-4.27a8.2,8.2,0,0,1,5.26,1.8l-1.62,2.35a6.65,6.65,0,0,0-3.68-1.4c-1.19,0-1.82.55-1.82,1.23v0c0,.93.61,1.23,3.06,1.86,2.87.75,4.49,1.78,4.49,4.25v0c0,2.81-2.15,4.39-5.2,4.39A9,9,0,0,1,251.12,87.75Z"/>
</svg>